<svg xmlns="http://www.w3.org/2000/svg" viewBox="0 0 24 24">
  <rect width="24" height="24" rx="6" fill="#171515"/>
  <path fill="#fff" d="M12 5.2a6.8 6.8 0 0 0-2.1 13.3c.3.1.4-.1.4-.3v-1c-1.7.4-2-.8-2-.8a1.6 1.6 0 0 0-.7-.9c-.6-.4 0-.4 0-.4a1.3 1.3 0 0 1 .9.6 1.4 1.4 0 0 0 1.9.5 1.4 1.4 0 0 1 .4-.9c-1.4-.2-2.8-.7-2.8-3.1a2.4 2.4 0 0 1 .6-1.6 2.2 2.2 0 0 1 .1-1.6s.5-.2 1.6.6a5.5 5.5 0 0 1 2.9 0c1.1-.8 1.6-.6 1.6-.6a2.2 2.2 0 0 1 .1 1.6 2.4 2.4 0 0 1 .6 1.6c0 2.4-1.4 2.9-2.8 3.1a1.6 1.6 0 0 1 .5 1.2v1.8c0 .2.1.4.4.3A6.8 6.8 0 0 0 12 5.2Z"/>
</svg>
